<svg version="1.1" xmlns="http://www.w3.org/2000/svg" xmlns:xlink="http://www.w3.org/1999/xlink" width="576px" height="512px" viewBox="0,0,256,227.55469"><g fill="#ffffff" fill-rule="nonzero" stroke="none" stroke-width="1" stroke-linecap="butt" stroke-linejoin="miter" stroke-miterlimit="10" stroke-dasharray="" stroke-dashoffset="0" font-family="none" font-weight="none" font-size="none" text-anchor="none" style="mix-blend-mode: normal"><g transform="translate(-0.02222,-0.00043) scale(0.44444,0.44444)"><path d="M288,32c-80.8,0 -145.5,36.8 -192.6,80.6c-46.8,43.4 -78.1,95.4 -92.9,131.1c-3.3,7.9 -3.3,16.7 0,24.6c14.8,35.7 46.1,87.7 92.9,131.1c47.1,43.8 111.8,80.6 192.6,80.6c80.8,0 145.5,-36.8 192.6,-80.6c46.8,-43.5 78.1,-95.4 93,-131.1c3.3,-7.9 3.3,-16.7 0,-24.6c-14.9,-35.7 -46.2,-87.7 -93,-131.1c-47.1,-43.8 -111.8,-80.6 -192.6,-80.6zM144,256c0,-79.529 64.471,-144 144,-144c79.529,0 144,64.471 144,144c0,79.529 -64.471,144 -144,144c-79.529,0 -144,-64.471 -144,-144zM288,192c0,35.3 -28.7,64 -64,64c-7.1,0 -13.9,-1.2 -20.3,-3.3c-5.5,-1.8 -11.9,1.6 -11.7,7.4c0.3,6.9 1.3,13.8 3.2,20.7c13.7,51.2 66.4,81.6 117.6,67.9c51.2,-13.7 81.6,-66.4 67.9,-117.6c-11.1,-41.5 -47.8,-69.4 -88.6,-71.1c-5.8,-0.2 -9.2,6.1 -7.4,11.7c2.1,6.4 3.3,13.2 3.3,20.3z"></path></g></g></svg>